#define white_king_width 60
#define white_king_height 60
static unsigned char white_king_bits[] = {
  0x00, 0x00, 0x00, 0x00, 0x00, 0x00, 0x00, 0x00, 0x00, 0x00, 0x00, 0x00, 
  0x00, 0x00, 0x00, 0x00, 0x00, 0x00, 0x00, 0x00, 0x00, 0x00, 0x00, 0x00, 
  0x00, 0x00, 0x00, 0x00, 0x00, 0x00, 0x00, 0x00, 0x00, 0x00, 0x00, 0x00, 
  0x00, 0x00, 0x00, 0x00, 0x00, 0x00, 0x00, 0x00, 0x00, 0x00, 0x00, 0x00, 
  0x00, 0x00, 0x00, 0xE0, 0x00, 0x00, 0x00, 0x00, 0x00, 0x00, 0x00, 0xE0, 
  0x00, 0x00, 0x00, 0x00, 0x00, 0x00, 0x00, 0xE0, 0x00, 0x00, 0x00, 0x00, 
  0x00, 0x00, 0x00, 0xFC, 0x07, 0x00, 0x00, 0x00, 0x00, 0x00, 0x00, 0xFC, 
  0x07, 0x00, 0x00, 0x00, 0x00, 0x00, 0x00, 0xF8, 0x07, 0x00, 0x00, 0x00, 
  0x00, 0x00, 0x00, 0xE0, 0x00, 0x00, 0x00, 0x00, 0x00, 0x00, 0x00, 0xE0, 
  0x00, 0x00, 0x00, 0x00, 0x00, 0x00, 0x00, 0xF0, 0x01, 0x00, 0x00, 0x00, 
  0x00, 0x00, 0x00, 0xF8, 0x03, 0x00, 0x00, 0x00, 0x00, 0x00, 0x00, 0xBC, 
  0x07, 0x00, 0x00, 0x00, 0x00, 0x00, 0x00, 0x1C, 0x0E, 0x00, 0x00, 0x00, 
  0x00, 0x00, 0x00, 0x0E, 0x0E, 0x00, 0x00, 0x00, 0x00, 0xC0, 0x07, 0x0E, 
  0x0C, 0x3E, 0x00, 0x00, 0x00, 0xF0, 0x7F, 0x06, 0xDC, 0xFF, 0x01, 0x00, 
  0x00, 0xFC, 0xFF, 0x07, 0xFC, 0xFF, 0x07, 0x00, 0x00, 0x3E, 0xF0, 0x0F, 
  0xFC, 0x80, 0x0F, 0x00, 0x00, 0x0E, 0x80, 0x0F, 0x3C, 0x00, 0x1E, 0x00, 
  0x00, 0x07, 0x00, 0x0F, 0x0E, 0x00, 0x1C, 0x00, 0x00, 0x07, 0x00, 0x1C, 
  0x07, 0x00, 0x38, 0x00, 0x80, 0x03, 0x00, 0x1C, 0x03, 0x00, 0x38, 0x00, 
  0x80, 0x03, 0x00, 0xB8, 0x03, 0x00, 0x38, 0x00, 0x80, 0x01, 0x00, 0xF0, 
  0x01, 0x00, 0x30, 0x00, 0x80, 0x03, 0x00, 0xE0, 0x00, 0x00, 0x38, 0x00, 
  0x80, 0x03, 0x00, 0xE0, 0x00, 0x00, 0x30, 0x00, 0x80, 0x03, 0x00, 0xC0, 
  0x00, 0x00, 0x38, 0x00, 0x00, 0x07, 0x00, 0xE0, 0x00, 0x00, 0x3C, 0x00, 
  0x00, 0x07, 0x00, 0xC0, 0x00, 0x00, 0x1C, 0x00, 0x00, 0x0E, 0x00, 0xC0, 
  0x00, 0x00, 0x1E, 0x00, 0x00, 0x1E, 0x00, 0xE0, 0x01, 0x00, 0x0F, 0x00, 
  0x00, 0x7C, 0xE0, 0xFF, 0x7F, 0x80, 0x07, 0x00, 0x00, 0xF0, 0xFC, 0x9F, 
  0xFF, 0xE3, 0x03, 0x00, 0x00, 0xE0, 0x1F, 0x00, 0xC0, 0xFF, 0x00, 0x00, 
  0x00, 0xC0, 0x07, 0x00, 0x00, 0x7C, 0x00, 0x00, 0x00, 0x80, 0x01, 0xFA, 
  0x07, 0x38, 0x00, 0x00, 0x00, 0x80, 0xF1, 0xFF, 0xFF, 0x39, 0x00, 0x00, 
  0x00, 0x80, 0xFF, 0x05, 0xF4, 0x3F, 0x00, 0x00, 0x00, 0x80, 0x0F, 0x00, 
  0x80, 0x3F, 0x00, 0x00, 0x00, 0x80, 0x03, 0x00, 0x00, 0x3C, 0x00, 0x00, 
  0x00, 0x80, 0x81, 0xFF, 0x2F, 0x38, 0x00, 0x00, 0x00, 0x80, 0xF9, 0xFF, 
  0xFF, 0x39, 0x00, 0x00, 0x00, 0x80, 0xBF, 0x00, 0xD0, 0x3F, 0x00, 0x00, 
  0x00, 0x80, 0x07, 0x00, 0x00, 0x3E, 0x00, 0x00, 0x00, 0x80, 0x0F, 0x00, 
  0x80, 0x1F, 0x00, 0x00, 0x00, 0x00, 0xFF, 0x02, 0xE0, 0x0F, 0x00, 0x00, 
  0x00, 0x00, 0xFC, 0xFF, 0xFF, 0x03, 0x00, 0x00, 0x00, 0x00, 0xE0, 0xFF, 
  0x7F, 0x00, 0x00, 0x00, 0x00, 0x00, 0x00, 0xF0, 0x01, 0x00, 0x00, 0x00, 
  0x00, 0x00, 0x00, 0x00, 0x00, 0x00, 0x00, 0x00, 0x00, 0x00, 0x00, 0x00, 
  0x00, 0x00, 0x00, 0x00, 0x00, 0x00, 0x00, 0x00, 0x00, 0x00, 0x00, 0x00, 
  0x00, 0x00, 0x00, 0x00, 0x00, 0x00, 0x00, 0x00, 0x00, 0x00, 0x00, 0x00, 
  0x00, 0x00, 0x00, 0x00, 0x00, 0x00, 0x00, 0x00, 0x00, 0x00, 0x00, 0x00, 
  };
