#define white_knight_width 60
#define white_knight_height 60
static unsigned char white_knight_bits[] = {
  0x00, 0x00, 0x00, 0x00, 0x00, 0x00, 0x00, 0x00, 0x00, 0x00, 0x00, 0x00, 
  0x00, 0x00, 0x00, 0x00, 0x00, 0x00, 0x00, 0x00, 0x00, 0x00, 0x00, 0x00, 
  0x00, 0x00, 0x00, 0x00, 0x00, 0x00, 0x00, 0x00, 0x00, 0x00, 0x00, 0x00, 
  0x00, 0x00, 0x00, 0x00, 0x00, 0x00, 0x00, 0x00, 0x00, 0x00, 0x00, 0x00, 
  0x00, 0x00, 0x00, 0x00, 0x00, 0x00, 0x00, 0x00, 0x00, 0x00, 0x00, 0x30, 
  0x00, 0x00, 0x00, 0x00, 0x00, 0x00, 0x3C, 0x78, 0x00, 0x00, 0x00, 0x00, 
  0x00, 0x00, 0x7C, 0xFC, 0x00, 0x00, 0x00, 0x00, 0x00, 0x00, 0xFC, 0xEE, 
  0x00, 0x00, 0x00, 0x00, 0x00, 0x00, 0xEC, 0xEF, 0x03, 0x00, 0x00, 0x00, 
  0x00, 0x00, 0xDC, 0xE7, 0x1F, 0x00, 0x00, 0x00, 0x00, 0x00, 0x1C, 0x81, 
  0xFF, 0x00, 0x00, 0x00, 0x00, 0x00, 0x0E, 0x00, 0xF8, 0x03, 0x00, 0x00, 
  0x00, 0x00, 0x0E, 0x00, 0xC0, 0x07, 0x00, 0x00, 0x00, 0x00, 0x07, 0x00, 
  0x00, 0x0F, 0x00, 0x00, 0x00, 0x80, 0x27, 0x00, 0x00, 0x1E, 0x00, 0x00, 
  0x00, 0x80, 0x3B, 0x00, 0x00, 0x3C, 0x00, 0x00, 0x00, 0xC0, 0x39, 0x00, 
  0x00, 0x70, 0x00, 0x00, 0x00, 0xC0, 0x39, 0x00, 0x00, 0xF0, 0x00, 0x00, 
  0x00, 0xE0, 0x1C, 0x00, 0x00, 0xE0, 0x00, 0x00, 0x00, 0xE0, 0x00, 0x00, 
  0x01, 0xC0, 0x01, 0x00, 0x00, 0x70, 0x00, 0x00, 0x03, 0xC0, 0x01, 0x00, 
  0x00, 0x38, 0x00, 0x00, 0x03, 0x80, 0x03, 0x00, 0x00, 0x38, 0x00, 0x80, 
  0x03, 0x80, 0x03, 0x00, 0x00, 0x1C, 0x00, 0x80, 0x01, 0x00, 0x03, 0x00, 
  0x00, 0x1C, 0x00, 0xC0, 0x01, 0x00, 0x07, 0x00, 0x00, 0x0E, 0x00, 0xE0, 
  0x01, 0x00, 0x07, 0x00, 0x00, 0x0E, 0x00, 0xF0, 0x01, 0x00, 0x06, 0x00, 
  0x00, 0x0F, 0x00, 0xF8, 0x01, 0x00, 0x06, 0x00, 0x00, 0x07, 0x00, 0xFE, 
  0x01, 0x00, 0x0E, 0x00, 0x00, 0x37, 0x00, 0xCF, 0x01, 0x00, 0x0E, 0x00, 
  0x00, 0x73, 0x80, 0xC7, 0x00, 0x00, 0x0E, 0x00, 0x00, 0x23, 0xC0, 0xE3, 
  0x00, 0x00, 0x0C, 0x00, 0x00, 0x07, 0xF0, 0x61, 0x00, 0x00, 0x0C, 0x00, 
  0x00, 0xC7, 0x79, 0x70, 0x00, 0x00, 0x1C, 0x00, 0x00, 0xC7, 0x3D, 0x78, 
  0x00, 0x00, 0x1C, 0x00, 0x00, 0xFF, 0x1D, 0x3C, 0x00, 0x00, 0x1C, 0x00, 
  0x00, 0xFE, 0x0F, 0x1E, 0x00, 0x00, 0x1C, 0x00, 0x00, 0xF8, 0x07, 0x0E, 
  0x00, 0x00, 0x1C, 0x00, 0x00, 0x80, 0x03, 0x07, 0x00, 0x00, 0x18, 0x00, 
  0x00, 0x00, 0x80, 0x03, 0x00, 0x00, 0x18, 0x00, 0x00, 0x00, 0xC0, 0x01, 
  0x00, 0x00, 0x1C, 0x00, 0x00, 0x00, 0xE0, 0x01, 0x00, 0x00, 0x18, 0x00, 
  0x00, 0x00, 0xE0, 0x00, 0x00, 0x00, 0x1C, 0x00, 0x00, 0x00, 0x70, 0x00, 
  0x00, 0x00, 0x18, 0x00, 0x00, 0x00, 0x70, 0x00, 0x00, 0x00, 0x1C, 0x00, 
  0x00, 0x00, 0x30, 0x00, 0x00, 0x00, 0x1C, 0x00, 0x00, 0x00, 0x70, 0x00, 
  0x00, 0x00, 0x18, 0x00, 0x00, 0x00, 0xF0, 0xFF, 0xFF, 0xFF, 0x1F, 0x00, 
  0x00, 0x00, 0xF0, 0xFF, 0xFF, 0xFF, 0x1F, 0x00, 0x00, 0x00, 0xF0, 0xFF, 
  0xFF, 0xFF, 0x0F, 0x00, 0x00, 0x00, 0x00, 0x00, 0x00, 0x00, 0x00, 0x00, 
  0x00, 0x00, 0x00, 0x00, 0x00, 0x00, 0x00, 0x00, 0x00, 0x00, 0x00, 0x00, 
  0x00, 0x00, 0x00, 0x00, 0x00, 0x00, 0x00, 0x00, 0x00, 0x00, 0x00, 0x00, 
  0x00, 0x00, 0x00, 0x00, 0x00, 0x00, 0x00, 0x00, 0x00, 0x00, 0x00, 0x00, 
  0x00, 0x00, 0x00, 0x00, 0x00, 0x00, 0x00, 0x00, 0x00, 0x00, 0x00, 0x00, 
  };
