#define white_rook_width 60
#define white_rook_height 60
static unsigned char white_rook_bits[] = {
  0x00, 0x00, 0x00, 0x00, 0x00, 0x00, 0x00, 0x00, 0x00, 0x00, 0x00, 0x00, 
  0x00, 0x00, 0x00, 0x00, 0x00, 0x00, 0x00, 0x00, 0x00, 0x00, 0x00, 0x00, 
  0x00, 0x00, 0x00, 0x00, 0x00, 0x00, 0x00, 0x00, 0x00, 0x00, 0x00, 0x00, 
  0x00, 0x00, 0x00, 0x00, 0x00, 0x00, 0x00, 0x00, 0x00, 0x00, 0x00, 0x00, 
  0x00, 0x00, 0x00, 0x00, 0x00, 0x00, 0x00, 0x00, 0x00, 0x00, 0x00, 0x00, 
  0x00, 0x00, 0x00, 0x00, 0x00, 0x00, 0x00, 0x00, 0x00, 0x00, 0x00, 0x00, 
  0x00, 0x00, 0x00, 0x00, 0x00, 0x00, 0x00, 0x00, 0x00, 0xC0, 0x7F, 0xFC, 
  0x0F, 0xFF, 0x00, 0x00, 0x00, 0xC0, 0x7F, 0xFC, 0x0F, 0xFF, 0x00, 0x00, 
  0x00, 0xC0, 0xF1, 0x1F, 0xFE, 0xE3, 0x00, 0x00, 0x00, 0xC0, 0xF1, 0x1F, 
  0xFE, 0xC3, 0x00, 0x00, 0x00, 0xC0, 0xE1, 0x0F, 0xF8, 0xE1, 0x00, 0x00, 
  0x00, 0xC0, 0x01, 0x00, 0x00, 0xE0, 0x00, 0x00, 0x00, 0xC0, 0x89, 0x50, 
  0x24, 0xE5, 0x00, 0x00, 0x00, 0xC0, 0xFF, 0xFF, 0xFF, 0xFF, 0x00, 0x00, 
  0x00, 0xC0, 0xFF, 0xFF, 0xFF, 0xFE, 0x00, 0x00, 0x00, 0x80, 0x07, 0x00, 
  0x00, 0x78, 0x00, 0x00, 0x00, 0x00, 0x2F, 0x00, 0x04, 0x3D, 0x00, 0x00, 
  0x00, 0x00, 0xFE, 0xFF, 0xF7, 0x1F, 0x00, 0x00, 0x00, 0x00, 0x0C, 0x00, 
  0x00, 0x0C, 0x00, 0x00, 0x00, 0x00, 0x1C, 0x00, 0x00, 0x0E, 0x00, 0x00, 
  0x00, 0x00, 0x1C, 0x00, 0x00, 0x0E, 0x00, 0x00, 0x00, 0x00, 0x1C, 0x00, 
  0x00, 0x0E, 0x00, 0x00, 0x00, 0x00, 0x1C, 0x00, 0x00, 0x0E, 0x00, 0x00, 
  0x00, 0x00, 0x1C, 0x00, 0x00, 0x0C, 0x00, 0x00, 0x00, 0x00, 0x1C, 0x00, 
  0x00, 0x0E, 0x00, 0x00, 0x00, 0x00, 0x1C, 0x00, 0x00, 0x0E, 0x00, 0x00, 
  0x00, 0x00, 0x1C, 0x00, 0x00, 0x0E, 0x00, 0x00, 0x00, 0x00, 0x1C, 0x00, 
  0x00, 0x0E, 0x00, 0x00, 0x00, 0x00, 0x1C, 0x00, 0x00, 0x0E, 0x00, 0x00, 
  0x00, 0x00, 0x1C, 0x00, 0x00, 0x0C, 0x00, 0x00, 0x00, 0x00, 0x1C, 0x00, 
  0x00, 0x0E, 0x00, 0x00, 0x00, 0x00, 0x1C, 0x00, 0x00, 0x0E, 0x00, 0x00, 
  0x00, 0x00, 0x1C, 0x00, 0x00, 0x0E, 0x00, 0x00, 0x00, 0x00, 0xFC, 0xFF, 
  0xFF, 0x0F, 0x00, 0x00, 0x00, 0x00, 0x1C, 0x88, 0x88, 0x0E, 0x00, 0x00, 
  0x00, 0x00, 0x0E, 0x00, 0x00, 0x1C, 0x00, 0x00, 0x00, 0x00, 0xAF, 0x54, 
  0x54, 0x3E, 0x00, 0x00, 0x00, 0x00, 0xFF, 0xFF, 0xFF, 0x7F, 0x00, 0x00, 
  0x00, 0x00, 0xFF, 0xFF, 0xFF, 0x7F, 0x00, 0x00, 0x00, 0x00, 0x03, 0x00, 
  0x00, 0x70, 0x00, 0x00, 0x00, 0x00, 0x03, 0x00, 0x00, 0x70, 0x00, 0x00, 
  0x00, 0x00, 0x03, 0x00, 0x00, 0x70, 0x00, 0x00, 0x00, 0xF0, 0xFF, 0xFF, 
  0xFF, 0xFF, 0x07, 0x00, 0x00, 0xF0, 0xFF, 0xFF, 0xFF, 0xFF, 0x07, 0x00, 
  0x00, 0x30, 0x00, 0x00, 0x00, 0x00, 0x07, 0x00, 0x00, 0x30, 0x00, 0x00, 
  0x00, 0x00, 0x07, 0x00, 0x00, 0xF0, 0xFF, 0xFF, 0xFF, 0xFF, 0x07, 0x00, 
  0x00, 0xF0, 0xFF, 0xFF, 0xFF, 0xFF, 0x07, 0x00, 0x00, 0x00, 0x00, 0x00, 
  0x00, 0x00, 0x00, 0x00, 0x00, 0x00, 0x00, 0x00, 0x00, 0x00, 0x00, 0x00, 
  0x00, 0x00, 0x00, 0x00, 0x00, 0x00, 0x00, 0x00, 0x00, 0x00, 0x00, 0x00, 
  0x00, 0x00, 0x00, 0x00, 0x00, 0x00, 0x00, 0x00, 0x00, 0x00, 0x00, 0x00, 
  0x00, 0x00, 0x00, 0x00, 0x00, 0x00, 0x00, 0x00, 0x00, 0x00, 0x00, 0x00, 
  0x00, 0x00, 0x00, 0x00, 0x00, 0x00, 0x00, 0x00, 0x00, 0x00, 0x00, 0x00, 
  };
