#define white_pawn_width 60
#define white_pawn_height 60
static unsigned char white_pawn_bits[] = {
  0x00, 0x00, 0x00, 0x00, 0x00, 0x00, 0x00, 0x00, 0x00, 0x00, 0x00, 0x00, 
  0x00, 0x00, 0x00, 0x00, 0x00, 0x00, 0x00, 0x00, 0x00, 0x00, 0x00, 0x00, 
  0x00, 0x00, 0x00, 0x00, 0x00, 0x00, 0x00, 0x00, 0x00, 0x00, 0x00, 0x00, 
  0x00, 0x00, 0x00, 0x00, 0x00, 0x00, 0x00, 0x00, 0x00, 0x00, 0x00, 0x00, 
  0x00, 0x00, 0x00, 0x00, 0x00, 0x00, 0x00, 0x00, 0x00, 0x00, 0x00, 0x00, 
  0x00, 0x00, 0x00, 0x00, 0x00, 0x00, 0x00, 0x00, 0x00, 0x00, 0x00, 0x00, 
  0x00, 0x00, 0x00, 0xE0, 0x03, 0x00, 0x00, 0x00, 0x00, 0x00, 0x00, 0xF8, 
  0x0F, 0x00, 0x00, 0x00, 0x00, 0x00, 0x00, 0xFC, 0x1F, 0x00, 0x00, 0x00, 
  0x00, 0x00, 0x00, 0x1C, 0x3C, 0x00, 0x00, 0x00, 0x00, 0x00, 0x00, 0x0E, 
  0x38, 0x00, 0x00, 0x00, 0x00, 0x00, 0x00, 0x0E, 0x38, 0x00, 0x00, 0x00, 
  0x00, 0x00, 0x00, 0x06, 0x30, 0x00, 0x00, 0x00, 0x00, 0x00, 0x00, 0x06, 
  0x30, 0x00, 0x00, 0x00, 0x00, 0x00, 0x00, 0x0E, 0x38, 0x00, 0x00, 0x00, 
  0x00, 0x00, 0x00, 0x0E, 0x38, 0x00, 0x00, 0x00, 0x00, 0x00, 0x00, 0x0F, 
  0x78, 0x00, 0x00, 0x00, 0x00, 0x00, 0x80, 0x07, 0xF0, 0x00, 0x00, 0x00, 
  0x00, 0x00, 0x80, 0x03, 0xE0, 0x00, 0x00, 0x00, 0x00, 0x00, 0xC0, 0x01, 
  0xC0, 0x01, 0x00, 0x00, 0x00, 0x00, 0xC0, 0x01, 0xC0, 0x01, 0x00, 0x00, 
  0x00, 0x00, 0xC0, 0x00, 0x80, 0x01, 0x00, 0x00, 0x00, 0x00, 0xE0, 0x00, 
  0x80, 0x03, 0x00, 0x00, 0x00, 0x00, 0xE0, 0x00, 0x80, 0x03, 0x00, 0x00, 
  0x00, 0x00, 0xC0, 0x00, 0x80, 0x03, 0x00, 0x00, 0x00, 0x00, 0xC0, 0x00, 
  0x80, 0x01, 0x00, 0x00, 0x00, 0x00, 0xC0, 0x01, 0xC0, 0x01, 0x00, 0x00, 
  0x00, 0x00, 0xC0, 0x01, 0xC0, 0x01, 0x00, 0x00, 0x00, 0x00, 0x80, 0x03, 
  0xE0, 0x00, 0x00, 0x00, 0x00, 0x00, 0x80, 0x07, 0xF0, 0x00, 0x00, 0x00, 
  0x00, 0x00, 0xC0, 0x07, 0xF0, 0x01, 0x00, 0x00, 0x00, 0x00, 0xE0, 0x03, 
  0xE0, 0x03, 0x00, 0x00, 0x00, 0x00, 0xF0, 0x00, 0x80, 0x07, 0x00, 0x00, 
  0x00, 0x00, 0x78, 0x00, 0x00, 0x0F, 0x00, 0x00, 0x00, 0x00, 0x38, 0x00, 
  0x00, 0x0E, 0x00, 0x00, 0x00, 0x00, 0x1C, 0x00, 0x00, 0x1C, 0x00, 0x00, 
  0x00, 0x00, 0x1C, 0x00, 0x00, 0x38, 0x00, 0x00, 0x00, 0x00, 0x0E, 0x00, 
  0x00, 0x38, 0x00, 0x00, 0x00, 0x00, 0x0E, 0x00, 0x00, 0x38, 0x00, 0x00, 
  0x00, 0x00, 0x07, 0x00, 0x00, 0x70, 0x00, 0x00, 0x00, 0x00, 0x07, 0x00, 
  0x00, 0x70, 0x00, 0x00, 0x00, 0x00, 0x03, 0x00, 0x00, 0xE0, 0x00, 0x00, 
  0x00, 0x80, 0x03, 0x00, 0x00, 0xE0, 0x00, 0x00, 0x00, 0x80, 0x03, 0x00, 
  0x00, 0xE0, 0x00, 0x00, 0x00, 0x80, 0x03, 0x00, 0x00, 0xC0, 0x00, 0x00, 
  0x00, 0x80, 0x01, 0x00, 0x00, 0xC0, 0x00, 0x00, 0x00, 0x80, 0x03, 0x00, 
  0x00, 0xC0, 0x00, 0x00, 0x00, 0x80, 0xFF, 0xFF, 0xFF, 0xFF, 0x00, 0x00, 
  0x00, 0x80, 0xFF, 0xFF, 0xFF, 0xFF, 0x00, 0x00, 0x00, 0x80, 0xFF, 0xFF, 
  0xFF, 0xFF, 0x00, 0x00, 0x00, 0x00, 0x00, 0x00, 0x00, 0x00, 0x00, 0x00, 
  0x00, 0x00, 0x00, 0x00, 0x00, 0x00, 0x00, 0x00, 0x00, 0x00, 0x00, 0x00, 
  0x00, 0x00, 0x00, 0x00, 0x00, 0x00, 0x00, 0x00, 0x00, 0x00, 0x00, 0x00, 
  0x00, 0x00, 0x00, 0x00, 0x00, 0x00, 0x00, 0x00, 0x00, 0x00, 0x00, 0x00, 
  0x00, 0x00, 0x00, 0x00, 0x00, 0x00, 0x00, 0x00, 0x00, 0x00, 0x00, 0x00, 
  };
